<svg height="876" width="1490.9999999999998" xmlns="http://www.w3.org/2000/svg">
 <!-- Created with Image Occlusion Enhanced -->
 <g>
  <title>Labels</title>
 </g>
 <g>
  <title>Masks</title>
  <rect fill="#FFEBA2" height="27.5" id="a37473290b684b7f975e6a71cc24a8f7-oa-1" stroke="#2D2D2D" width="103.75" x="137.7499" y="45.25002"/>
  <rect fill="#FFEBA2" height="23.75" id="a37473290b684b7f975e6a71cc24a8f7-oa-2" stroke="#2D2D2D" width="133.75" x="392.7499" y="47.75002"/>
  <rect fill="#FFEBA2" height="25" id="a37473290b684b7f975e6a71cc24a8f7-oa-3" stroke="#2D2D2D" width="102.5" x="626.49991" y="47.75002"/>
  <rect fill="#FFEBA2" height="23.75" id="a37473290b684b7f975e6a71cc24a8f7-oa-4" stroke="#2D2D2D" width="161.25" x="936.49991" y="47.75002"/>
  <rect fill="#FFEBA2" height="25" id="a37473290b684b7f975e6a71cc24a8f7-oa-5" stroke="#2D2D2D" width="136.25" x="1200.24992" y="47.75002"/>
  <rect fill="#FFEBA2" height="135" id="a37473290b684b7f975e6a71cc24a8f7-oa-6" stroke="#2D2D2D" width="235" x="935.24991" y="182.75002"/>
  <rect fill="#FFEBA2" height="166.25" id="a37473290b684b7f975e6a71cc24a8f7-oa-7" stroke="#2D2D2D" width="225" x="933.99991" y="376.50002"/>
  <rect fill="#FFEBA2" height="48.75" id="a37473290b684b7f975e6a71cc24a8f7-oa-8" stroke="#2D2D2D" width="241.25" x="932.74991" y="570.25003"/>
  <rect fill="#FFEBA2" height="75" id="a37473290b684b7f975e6a71cc24a8f7-oa-9" stroke="#2D2D2D" width="197.5" x="142.7499" y="377.75002"/>
  <rect fill="#FFEBA2" height="187.5" id="a37473290b684b7f975e6a71cc24a8f7-oa-10" stroke="#2D2D2D" width="282.5" x="1197.74992" y="376.50002"/>
  <rect fill="#FFEBA2" height="31.25" id="a37473290b684b7f975e6a71cc24a8f7-oa-11" stroke="#2D2D2D" width="132.5" x="1201.49992" y="696.50003"/>
  <rect fill="#FFEBA2" height="75" id="a37473290b684b7f975e6a71cc24a8f7-oa-12" stroke="#2D2D2D" width="252.5" x="932.74991" y="695.25003"/>
  <rect fill="#FFEBA2" height="55" id="a37473290b684b7f975e6a71cc24a8f7-oa-13" stroke="#2D2D2D" width="215" x="395.2499" y="376.50002"/>
  <rect fill="#FFEBA2" height="77.5" id="a37473290b684b7f975e6a71cc24a8f7-oa-14" stroke="#2D2D2D" width="253.75" x="627.74991" y="377.75002"/>
  <rect fill="#FFEBA2" height="47.5" id="a37473290b684b7f975e6a71cc24a8f7-oa-15" stroke="#2D2D2D" width="256.25" x="1201.49992" y="182.75002"/>
 </g>
</svg>