<svg height="483" width="888" xmlns="http://www.w3.org/2000/svg">
 <!-- Created with Image Occlusion Enhanced -->
 <g>
  <title>Labels</title>
 </g>
 <g>
  <title>Masks</title>
  <rect class="qshape" fill="#FF7E7E" height="41.66667" id="4c5d39f02ec74216bd2bb11304de244b-ao-1" stroke="#2D2D2D" width="111.11111" x="256.44447" y="18.38886"/>
  <rect fill="#FFEBA2" height="40.27778" id="4c5d39f02ec74216bd2bb11304de244b-ao-2" stroke="#2D2D2D" width="113.88889" x="253.66669" y="87.83331"/>
  <rect fill="#FFEBA2" height="51.38889" id="4c5d39f02ec74216bd2bb11304de244b-ao-3" stroke="#2D2D2D" width="106.94445" x="777.27782" y="29.49997"/>
  <rect fill="#FFEBA2" height="30.55556" id="4c5d39f02ec74216bd2bb11304de244b-ao-4" stroke="#2D2D2D" width="100" x="774.50004" y="96.16664"/>
  <rect fill="#FFEBA2" height="23.61111" id="4c5d39f02ec74216bd2bb11304de244b-ao-5" stroke="#2D2D2D" width="93.05556" x="780.05559" y="151.7222"/>
  <rect fill="#FFEBA2" height="26.38889" id="4c5d39f02ec74216bd2bb11304de244b-ao-6" stroke="#2D2D2D" width="95.83334" x="781.44448" y="198.94442"/>
  <rect fill="#FFEBA2" height="23.61111" id="4c5d39f02ec74216bd2bb11304de244b-ao-7" stroke="#2D2D2D" width="73.61111" x="777.27782" y="248.94442"/>
  <rect fill="#FFEBA2" height="26.38889" id="4c5d39f02ec74216bd2bb11304de244b-ao-8" stroke="#2D2D2D" width="59.72222" x="777.27782" y="291.99998"/>
  <rect fill="#FFEBA2" height="23.61111" id="4c5d39f02ec74216bd2bb11304de244b-ao-9" stroke="#2D2D2D" width="100" x="784.22226" y="340.61109"/>
  <rect fill="#FFEBA2" height="0" id="4c5d39f02ec74216bd2bb11304de244b-ao-10" stroke="#2D2D2D" width="9.72222" x="802.27782" y="355.88887"/>
  <rect fill="#FFEBA2" height="34.72222" id="4c5d39f02ec74216bd2bb11304de244b-ao-11" stroke="#2D2D2D" width="69.44445" x="777.27782" y="378.11109"/>
  <rect fill="#FFEBA2" height="23.61111" id="4c5d39f02ec74216bd2bb11304de244b-ao-12" stroke="#2D2D2D" width="76.38889" x="252.2778" y="394.77776"/>
  <rect fill="#FFEBA2" height="29.16667" id="4c5d39f02ec74216bd2bb11304de244b-ao-13" stroke="#2D2D2D" width="59.72222" x="252.2778" y="353.11109"/>
  <rect fill="#FFEBA2" height="29.16667" id="4c5d39f02ec74216bd2bb11304de244b-ao-14" stroke="#2D2D2D" width="69.44445" x="255.05558" y="314.2222"/>
  <rect fill="#FFEBA2" height="152.77778" id="4c5d39f02ec74216bd2bb11304de244b-ao-15" stroke="#2D2D2D" width="93.05556" x="262.00003" y="150.33331"/>
  <rect fill="#FFEBA2" height="43.05556" id="4c5d39f02ec74216bd2bb11304de244b-ao-16" stroke="#2D2D2D" width="54.16667" x="173.11114" y="218.38887"/>
 </g>
</svg>